<?xml version="1.0" encoding="utf-8"?>
<!DOCTYPE svg PUBLIC "-//W3C//DTD SVG 1.1//EN" "http://www.w3.org/Graphics/SVG/1.1/DTD/svg11.dtd">
<svg version="1.1" id="Layer_1" xmlns="http://www.w3.org/2000/svg" xmlns:xlink="http://www.w3.org/1999/xlink" x="0px" y="0px" width="188.797px" height="63.269px" viewbox="0 0 190 64" style="shape-rendering:geometricPrecision; text-rendering:geometricPrecision; image-rendering:optimizeQuality; fill-rule:evenodd; clip-rule:evenodd" xml:space="preserve">
<g>
	<path fill-rule="evenodd" clip-rule="evenodd" fill="#0078B5" d="M94.165,23.058c-8.641,1.603-10.894,5.765-11.356,14.076
		c-0.012,0.219,0.008-0.02-0.013,0.146l-0.039,0.207c-0.119,0.75-0.032,25.085-0.032,25.781c4.424,0,8.704,0.081,13.188,0.081
		h39.971V45.931H99.589c0.198-0.614,0.066-4.566,0.066-5.536h2.118c16.339,0,32.758-0.06,49.089,0
		c6.135,0.023,9.143-3.629,9.483-9.167V15.778c-0.009-3.565-0.502-5.937-2.582-9.023c-2.801-4.157-7.47-6.746-13.089-6.733h-42.984
		c-11.473,0-18.381,4.405-18.719,16.948h60.448v6.042H94.624C94.507,23.035,94.424,23.058,94.165,23.058z"/>
	<path fill-rule="evenodd" clip-rule="evenodd" fill="#0078B5" d="M58.593,45.931H0.015c0,2.764-0.142,3.608,0.742,6.257
		c0.646,1.933,2.016,4.634,3.469,6.138c0.166,0.171,0.296,0.272,0.44,0.454c0.33,0.416,1.379,1.321,1.837,1.663
		c1.411,1.053,2.876,1.803,4.762,2.321c2.026,0.557,3.951,0.505,6.496,0.505h42.25c1.065,0,2.473,0.08,3.496-0.004
		c7.811-0.642,14.295-7.308,14.33-15.215c0.015-3.436-0.009-6.879-0.009-10.314c-0.367-9.031-7.799-14.678-16.107-14.678H18.642
		h-1.613v-5.942h1.546h59.265c0-4.203-0.865-7.936-3.231-11.094c-2.437-3.252-6.154-5.379-10.275-5.844
		c-0.455-0.051-1.149-0.153-1.631-0.159c-3.483-0.043-7.243,0.003-10.749,0.003H16.133c-8.101,0-15.011,5.536-15.997,13.663
		c-0.195,1.61-0.121,3.357-0.121,6.018v3.401c0,1.854-0.122,2.688,0.324,4.514c1.83,7.5,7.282,12.283,15.276,12.567
		c1.989,0.071,4.07-0.033,6.297-0.033h38.995v2.522v3.257H58.593z"/>
	<path fill-rule="evenodd" clip-rule="evenodd" fill="#02ABE3" d="M141.663,46.256v16.85l0.245,0.244h18.479l-0.081-17.338h-18.397
		C141.719,46.012,141.663,46.068,141.663,46.256z"/>
	<path fill-rule="evenodd" clip-rule="evenodd" fill="#070204" d="M172.516,50.953c0.846,0,4.758-0.129,5.263,0.073v12.242h5.719
		l0.034-12.266c0.724-0.18,4.256-0.05,5.266-0.05v-4.779h-16.281V50.953z"/>
	<path fill-rule="evenodd" clip-rule="evenodd" fill="#070204" d="M165.759,63.105c0,0.187,0.057,0.244,0.245,0.244h5.616V46.174
		h-5.861V63.105z"/>
	<path fill-rule="evenodd" clip-rule="evenodd" fill="#888688" d="M188.797,50.953c-1.01,0-4.542-0.13-5.266,0.05l-0.034,12.266
		h-5.719V51.026c-0.505-0.202-4.417-0.073-5.263-0.073c0.126,0.104-0.18,0.117,0.569,0.106l4.641-0.001V63.35h5.862V51.059
		l4.89,0.009C188.964,51.031,188.662,51.064,188.797,50.953z"/>
	<rect x="0.081" y="17.014" fill-rule="evenodd" clip-rule="evenodd" fill="#006BA1" width="16.948" height="6.044"/>
	<rect x="143.42" y="16.97" fill-rule="evenodd" clip-rule="evenodd" fill="#006BA1" width="16.926" height="6.042"/>
	<rect x="60.859" y="40.173" fill-rule="evenodd" clip-rule="evenodd" fill="#006BA1" width="16.948" height="5.781"/>
	<rect x="82.763" y="40.173" fill-rule="evenodd" clip-rule="evenodd" fill="#006BA1" width="16.948" height="5.781"/>
</g>
</svg>
